HIERARCHY
ROOT Pelvis
{
	OFFSET 0.000000 0.000000 0.000000
	CHANNELS 6 Xposition Yposition Zposition Zrotation Yrotation Xrotation 
	JOINT Left_hip
	{
		OFFSET 0.070241 -0.085575 -0.010474
		CHANNELS 3 Zrotation Yrotation Xrotation
		JOINT Left_knee
		{
			OFFSET 0.032125 -0.356873 -0.000555
			CHANNELS 3 Zrotation Yrotation Xrotation
			JOINT Left_ankle
			{
				OFFSET -0.010961 -0.370212 -0.042278
				CHANNELS 3 Zrotation Yrotation Xrotation
				JOINT Left_foot
				{
					OFFSET 0.023322 -0.052281 0.110104
					CHANNELS 3 Zrotation Yrotation Xrotation
					End Site
					{
						OFFSET 0.000000 0.000000 0.000000
					}
				}
			}
		}
	}
	JOINT Right_hip
	{
		OFFSET -0.068518 -0.084320 -0.007402
		CHANNELS 3 Zrotation Yrotation Xrotation
		JOINT Right_knee
		{
			OFFSET -0.037345 -0.364815 -0.003619
			CHANNELS 3 Zrotation Yrotation Xrotation
			JOINT Right_ankle
			{
				OFFSET 0.013394 -0.370006 -0.039954
				CHANNELS 3 Zrotation Yrotation Xrotation
				JOINT Right_foot
				{
					OFFSET -0.019600 -0.045455 0.113223
					CHANNELS 3 Zrotation Yrotation Xrotation
					End Site
					{
						OFFSET 0.000000 0.000000 0.000000
					}
				}
			}
		}
	}
	JOINT Spine1
	{
		OFFSET -0.002404 0.098129 -0.018169
		CHANNELS 3 Zrotation Yrotation Xrotation
		JOINT Spine2
		{
			OFFSET 0.003989 0.127209 -0.001742
			CHANNELS 3 Zrotation Yrotation Xrotation
			JOINT Spine3
			{
				OFFSET 0.001758 0.046641 0.023475
				CHANNELS 3 Zrotation Yrotation Xrotation
				JOINT Neck
				{
					OFFSET -0.003759 0.194901 -0.039982
					CHANNELS 3 Zrotation Yrotation Xrotation
					JOINT Head
					{
						OFFSET 0.003999 0.063756 0.047665
						CHANNELS 3 Zrotation Yrotation Xrotation
						End Site
						{
							OFFSET 0.000000 0.000000 0.000000
						}
					}
				}
				JOINT Left_collar
				{
					OFFSET 0.071816 0.109048 -0.028973
					CHANNELS 3 Zrotation Yrotation Xrotation
					JOINT Left_shoulder
					{
						OFFSET 0.084027 0.032269 -0.006525
						CHANNELS 3 Zrotation Yrotation Xrotation
						JOINT Left_elbow
						{
							OFFSET 0.243854 -0.013992 -0.025905
							CHANNELS 3 Zrotation Yrotation Xrotation
							JOINT Left_wrist
							{
								OFFSET 0.232156 0.008196 -0.000339
								CHANNELS 3 Zrotation Yrotation Xrotation
								JOINT Left_palm
								{
									OFFSET 0.075377 -0.009461 -0.012494
									CHANNELS 3 Zrotation Yrotation Xrotation
									End Site
									{
										OFFSET 0.000000 0.000000 0.000000
									}
								}
							}
						}
					}
				}
				JOINT Right_collar
				{
					OFFSET -0.073768 0.107001 -0.033755
					CHANNELS 3 Zrotation Yrotation Xrotation
					JOINT Right_shoulder
					{
						OFFSET -0.086837 0.032868 -0.009431
						CHANNELS 3 Zrotation Yrotation Xrotation
						JOINT Right_elbow
						{
							OFFSET -0.236446 -0.012544 -0.018747
							CHANNELS 3 Zrotation Yrotation Xrotation
							JOINT Right_wrist
							{
								OFFSET -0.236110 0.006124 -0.004327
								CHANNELS 3 Zrotation Yrotation Xrotation
								JOINT Right_palm
								{
									OFFSET -0.074800 -0.006875 -0.009610
									CHANNELS 3 Zrotation Yrotation Xrotation
									End Site
									{
										OFFSET 0.000000 0.000000 0.000000
									}
								}
							}
						}
					}
				}
			}
		}
	}
}
MOTION
Frames: 14
Frame Time: 0.100000
0.131826 0.269123 -1.355619 -152.988036 -76.822558 -29.352918 -4.861844 -2.230243 15.000962 0.256189 -15.936212 -8.344904 4.851538 9.870460 -1.614164 -1.232303 11.724289 -11.616716 1.876887 4.431079 -18.873443 -1.164932 0.425737 25.972678 6.332985 -13.344121 -6.176091 -11.306297 0.865147 2.614351 -5.043894 -3.634279 2.856010 2.696825 -1.994965 2.343016 0.090560 -0.710148 -1.072682 3.393401 -0.920128 -0.074313 12.075017 2.834878 -9.489384 -14.939058 9.716222 -4.627723 -63.777869 6.483964 23.783322 -5.359295 -49.358646 37.079342 -19.826285 -0.805367 17.066559 -15.374309 -8.746356 -14.494238 18.075903 -6.922667 -2.688978 63.142727 -6.205190 20.571849 -2.697983 57.204861 20.175108 18.223234 9.337873 -2.573914 18.801947 7.076894 -2.105933 
0.192006 0.273775 -1.335023 -163.594373 -65.283874 -18.045328 -4.439195 -3.199141 17.304485 0.847266 -21.194862 -7.087057 3.839416 6.070859 -4.506358 -4.648527 12.660876 -11.972811 1.735835 3.923972 -21.297847 -1.307522 0.368901 4.300832 7.751154 -11.885276 -1.627016 -12.617860 -0.159306 2.283013 -5.530549 -3.507301 4.002914 1.954948 -1.179181 2.813457 0.159257 -0.389125 -0.999131 2.952837 -2.224200 -3.488547 13.754099 -0.142896 -13.858151 -14.534231 8.603664 -4.585066 -63.352852 7.408856 23.618444 -3.299145 -50.328940 33.693377 -17.989267 -2.586824 17.108521 -12.212295 -6.357962 -14.533767 16.878901 -4.611871 -1.393787 64.223112 -6.118818 19.223093 -2.635962 57.201767 20.173034 16.065204 9.783139 -1.868625 15.857093 5.626133 -1.834621 
0.260092 0.282829 -1.302374 -165.962827 -55.112979 -15.062700 -4.563695 -3.596158 18.474742 -0.337806 -24.063346 -0.980933 4.677159 3.973703 -8.375000 -7.606883 13.250349 -13.336506 -0.119050 4.253358 -23.655553 -0.896107 3.328315 0.570209 9.148470 -8.641204 -3.560114 -13.443249 -0.567913 2.027541 -4.247594 -3.841259 3.932608 1.244381 -0.563115 2.267943 -0.416580 -0.131637 -0.613465 -1.198836 -2.347707 -3.724259 11.139771 -0.836197 -15.588049 -14.664560 8.025243 -5.352306 -63.021976 8.380529 23.159554 -1.917069 -50.317891 32.108794 -17.844092 -4.144752 16.515515 -10.689099 -5.310841 -13.988909 16.952394 -4.012131 -1.313983 64.778844 -6.890384 18.708106 -2.071759 58.231032 22.542962 14.725465 9.970667 0.798965 15.309982 4.900804 -2.384632 
0.344537 0.286645 -1.256984 -168.408681 -47.243866 -11.998122 -3.051928 -4.781962 19.817110 -1.316635 -26.029556 5.826783 3.575232 2.122383 -6.666829 -5.258091 13.544380 -14.992207 -1.167406 6.578372 -26.370835 -0.242382 3.313384 12.834773 6.642137 -6.103210 3.928180 -9.921004 -3.283496 0.062085 -1.283154 -5.028993 1.141094 2.519862 0.570707 2.671901 -1.045839 -0.242289 -2.862444 -4.492841 1.541846 -1.013570 3.429667 0.458057 -13.324357 -17.860477 10.021641 -7.031822 -61.864657 9.530485 24.551275 -0.102619 -47.582627 30.208206 -18.772664 -6.122123 14.350044 -11.116331 -4.948248 -10.403079 19.917782 -6.599273 -3.145201 60.420242 -8.498731 20.327446 -1.364626 60.387262 21.821522 16.293836 11.448672 0.115625 17.484781 4.548751 -1.216624 
0.430688 0.272352 -1.204979 -173.110929 -41.669110 -9.642221 2.158133 -3.306903 13.502915 -6.730695 -21.564880 26.486651 -5.752149 -1.317935 11.584948 -0.979124 13.946306 -26.703286 1.610360 6.301489 -20.342390 1.351299 1.549336 17.853343 2.423441 -6.857759 -3.270938 -11.555860 -4.779120 1.498968 3.427829 -4.671295 -0.415140 2.499580 0.178635 -0.213741 -0.420000 -0.458931 -1.427570 -4.527338 5.733705 2.253215 -0.453363 3.323920 -11.511754 -18.072500 9.519345 -6.763706 -66.284068 9.330705 22.628390 1.394727 -40.782440 30.614663 -20.038244 -6.519806 13.195859 -15.326660 -6.872573 -8.818186 17.750579 -7.073534 -4.386196 61.267567 -10.638524 18.893355 -1.281394 62.101418 21.917011 18.266543 11.910158 0.164096 21.939964 6.340087 -3.169219 
0.495586 0.259805 -1.170966 -176.129973 -34.594571 -10.033714 5.662020 -4.049369 -2.139810 -8.538425 -11.181341 51.716703 -9.509795 1.395240 26.712686 1.233928 14.529068 -35.217305 5.465773 4.063582 -10.357257 0.954291 0.773021 14.605906 -1.274107 -10.147784 -6.413231 -13.448162 -4.612350 1.115960 3.132737 -1.525824 2.427937 2.735331 -1.611628 -0.399334 1.177892 -0.903301 -0.547320 -2.964703 5.918452 0.214196 1.049379 3.530176 -13.370379 -15.746272 5.170016 -4.169977 -67.562027 6.242302 21.956434 -1.756808 -43.477881 37.504711 -17.369725 -5.094214 12.768204 -18.844440 -8.359495 -7.235330 15.681071 -4.644927 -4.424405 63.006136 -11.265600 17.729415 -1.860471 63.176716 24.752346 16.792069 8.760109 2.018466 26.065866 9.309572 -5.061293 
0.547419 0.247756 -1.131423 -175.300968 -32.138255 -11.248340 5.167798 -3.924197 -14.763457 -4.626857 0.222729 57.607484 0.525375 8.873932 5.461921 -0.228858 12.262215 -25.741485 6.244901 2.318989 -1.688728 0.098398 2.110318 9.016567 -0.599334 -11.491296 -8.529108 -9.304388 -2.288634 3.310781 1.405057 2.682080 3.926706 2.382767 -1.875554 0.930195 0.793483 0.441289 -0.514964 1.327199 6.283298 -2.329169 2.885233 1.888345 -15.125385 -16.028258 6.536821 -3.832863 -65.233220 5.468501 20.951366 -3.455272 -49.299173 38.444993 -16.406133 -3.866278 15.436268 -17.428966 -8.093124 -9.800492 15.920902 -3.581941 -1.792780 62.882372 -10.230710 16.749494 3.282442 62.585120 32.258144 14.588606 6.973512 3.301329 24.169631 9.207581 -4.182954 
0.590589 0.239375 -1.087025 -173.314640 -33.413400 -11.576816 4.011349 -2.589420 -21.298186 -2.835223 6.160609 38.096807 3.071290 11.647819 -1.333542 0.399433 10.353118 -17.241545 5.306871 0.470909 5.573386 -0.820551 3.769941 2.161399 2.065627 -10.883646 -9.956280 -7.379560 0.863572 6.416618 0.903380 6.367045 4.567611 0.369915 -0.930549 0.739880 -0.267855 2.458146 -0.632568 4.543562 7.251204 -3.337739 4.368742 -0.072344 -15.034125 -16.846502 10.060777 -5.662931 -64.098348 6.813345 21.057721 -0.692375 -53.615691 31.589421 -16.499886 -6.693245 13.486705 -16.616956 -8.413289 -11.584945 16.253985 -3.745549 0.519648 63.578404 -9.565331 17.553712 3.147168 59.468962 30.986680 13.334043 7.758918 1.302804 20.120671 9.653662 -4.317701 
0.626511 0.239405 -1.035665 -172.807695 -35.728134 -10.517196 3.250797 -0.351539 -22.886049 -1.516001 7.878723 8.963945 2.175191 11.117469 4.486854 2.277039 9.690709 -11.943764 5.183808 -0.369956 10.896770 -1.785933 5.049697 -2.015383 3.650495 -10.263599 -12.594782 -6.326381 2.292646 10.105500 1.858401 8.242740 4.861031 -1.377145 -0.238013 0.954946 -0.834831 3.683492 -1.114413 5.324324 8.808471 -3.922965 3.859303 -1.041191 -15.520631 -17.934483 11.553556 -7.895402 -65.081317 7.928339 20.982675 4.631837 -54.543551 25.208126 -16.081038 -6.458247 15.325690 -16.857904 -10.184291 -13.061314 16.561342 -3.753305 1.844052 63.898582 -9.268603 18.996078 2.071157 57.601588 29.833489 13.073403 7.643197 2.026213 17.901821 11.348928 -6.367332 
0.661574 0.242336 -0.973500 -174.040044 -38.478304 -9.551488 3.733188 2.711967 -22.498849 -1.153441 10.457937 -6.373781 2.583544 13.019926 3.421334 3.383327 8.679712 -8.450764 5.362176 -1.013608 15.935007 -2.001320 6.892999 -2.147191 5.169051 -9.523749 -15.621486 -5.679413 2.868711 12.687018 3.145161 8.792875 4.780521 -1.415585 -0.734539 1.199611 -0.649961 3.907191 -0.494246 4.803437 11.569466 -3.924711 1.845688 0.290891 -15.429056 -17.889047 10.241165 -7.988356 -65.667129 7.597835 20.259993 5.529650 -53.033946 25.293451 -16.620013 -5.434816 16.946842 -17.512413 -11.533673 -14.480113 16.410624 -2.880430 2.328847 63.512896 -8.949581 18.670265 2.406360 57.979064 30.136506 13.895763 7.463315 1.695042 17.952882 11.940362 -7.488316 
0.700947 0.234121 -0.896994 -174.397439 -41.124897 -9.134201 5.030927 4.237691 -25.364347 -0.384634 16.952736 5.541540 3.404612 14.309079 7.384338 3.733734 8.401101 -10.785011 3.916882 -0.993327 17.834451 -1.879617 7.635183 4.468198 4.508916 -7.708178 -13.108727 -4.584583 2.036182 9.925353 1.821186 8.727262 2.598265 -0.151632 -1.845272 2.349916 -0.386017 3.052817 -1.171616 6.266077 13.377122 -2.862973 1.008392 2.624605 -14.549360 -17.720828 10.670213 -6.858086 -64.202685 8.558473 20.095012 2.536537 -54.932822 28.196640 -15.018916 -6.218601 13.634729 -18.249330 -11.278300 -12.837765 17.339011 -4.107320 1.808251 61.758875 -7.821800 19.773928 2.736174 57.346783 29.206519 13.321464 7.005530 0.941582 19.274604 11.744752 -7.333294 
0.739973 0.209079 -0.807946 -173.234970 -38.622309 -10.207377 3.249425 0.273475 -22.748194 -1.273030 14.310261 11.537672 5.884537 14.740742 8.772778 3.293131 7.730008 -12.509497 0.801685 -0.317871 14.484565 -0.499952 7.774013 20.072060 8.542074 -6.124644 1.905847 -8.412450 2.270736 0.966288 -1.536595 7.301127 -0.122181 1.612532 -2.895201 1.409531 -0.438615 2.024885 -1.223250 5.278324 10.722594 -2.271254 2.868079 5.878236 -10.905944 -16.851927 11.758991 -6.178307 -62.284024 7.627271 21.607472 -3.006581 -54.904913 33.507198 -13.935552 -6.233809 9.318780 -18.247157 -9.850959 -9.583306 18.289744 -8.138645 -0.705174 61.471990 -7.507941 20.840206 1.944577 55.932213 26.726610 14.013234 5.991341 -0.064695 20.499172 11.216146 -5.671716 
0.763852 0.185585 -0.727248 -172.197834 -34.134170 -12.519331 -1.951782 -2.463043 -13.383714 -2.662971 10.326087 8.065977 10.477002 16.638574 4.309998 1.546337 6.833944 -11.448942 -3.100374 0.109295 1.527019 1.403532 4.228891 46.637805 13.603695 -7.470725 21.248554 -12.704754 2.353548 -9.609635 -3.150627 4.181924 0.381679 2.644972 -2.255686 0.259829 -0.909165 1.979848 -0.636859 2.038588 7.601655 -2.930570 3.671843 8.136619 -8.495138 -14.299752 8.027226 -5.537749 -61.222092 6.155782 23.255724 -7.129289 -54.152174 37.915071 -11.207605 -5.685282 6.257934 -17.134798 -8.697529 -7.827741 16.958187 -6.914493 -1.197361 60.839707 -6.469045 22.267439 7.332678 56.730962 33.239358 12.587157 5.606951 1.253939 20.653608 10.099839 -4.601859 
0.780955 0.168810 -0.665439 -173.858167 -28.256823 -13.442286 -4.735866 -1.893409 -3.244663 -2.851232 3.209269 2.205094 10.224382 16.142641 1.961382 1.181632 8.960330 -11.548377 -1.995807 2.211233 -11.678733 3.321592 1.499814 61.250426 9.970358 -6.661421 4.084609 -10.678658 1.778462 -5.496348 -1.688186 0.418200 2.709253 2.395788 -1.825242 1.712435 -0.655391 1.333505 -1.617116 -1.555348 8.064334 -2.399546 2.448729 8.672302 -10.406998 -13.133528 3.385042 -5.116920 -60.597848 5.555280 23.870987 -12.371314 -50.102098 47.891861 -19.993314 -2.557051 16.776416 -16.521829 -10.505764 -12.848536 16.893820 -2.566130 -0.437363 58.684704 -5.449553 23.034497 11.686343 59.681251 41.910416 17.610809 6.336919 7.211537 21.207861 9.692663 -6.438528 
